<?xml version="1.0" standalone="no"?>
<!DOCTYPE svg PUBLIC "-//W3C//DTD SVG 20010904//EN"
 "http://www.w3.org/TR/2001/REC-SVG-20010904/DTD/svg10.dtd">
<svg version="1.0" xmlns="http://www.w3.org/2000/svg"
 width="48.000000pt" height="48.000000pt" viewBox="0 0 48.000000 48.000000"
 preserveAspectRatio="xMidYMid meet">
<metadata>
Created by potrace 1.13, written by Peter Selinger 2001-2015
</metadata>
<g transform="translate(0.000000,48.000000) scale(0.100000,-0.100000)"
fill="#000000" stroke="none">
<path d="M84 422 c-51 -8 -64 -14 -65 -30 0 -14 -2 -14 -9 3 -5 12 -9 -47 -9
-152 l-1 -173 103 0 c71 0 111 -5 131 -15 16 -9 31 -13 34 -10 3 3 -1 5 -9 5
-11 0 -11 2 1 10 8 5 61 10 118 10 l102 0 0 139 c0 180 -4 198 -43 207 -52 11
-118 6 -157 -14 -36 -18 -65 -19 -55 -2 3 5 0 12 -6 16 -8 5 -9 3 -4 -6 6 -10
4 -12 -9 -7 -10 4 -21 7 -24 7 -4 0 -2 4 5 8 11 7 -63 10 -103 4z m120 -45
c26 -17 26 -18 25 -143 l0 -126 -27 7 c-15 4 -54 11 -87 15 l-60 7 50 3 50 3
-50 6 c-44 5 -51 4 -57 -14 -3 -11 -6 42 -7 117 -1 100 2 138 12 142 24 11
125 0 151 -17z m220 17 c13 -5 16 -27 16 -138 l0 -131 -78 1 c-43 0 -83 4 -90
8 -7 4 -12 3 -12 -3 0 -5 5 -11 12 -13 7 -3 5 -7 -6 -11 -18 -7 -19 -3 -12 69
3 42 6 103 6 134 0 57 0 58 38 73 38 17 99 22 126 11z"/>
<path d="M65 382 c-8 -5 -12 -165 -6 -214 1 -5 18 -8 39 -8 49 0 114 -19 107
-31 -4 -5 -2 -9 3 -9 12 0 7 119 -6 132 -6 6 -42 14 -79 18 -66 7 -67 7 -16 9
28 0 63 -3 77 -9 24 -9 26 -7 26 19 0 25 -5 31 -37 40 l-38 10 36 -4 c27 -4
38 -1 42 10 6 15 -20 35 -45 35 -7 -1 1 -7 17 -15 l30 -14 -30 7 c-16 4 -51 7
-77 7 -55 0 -51 12 7 18 l40 4 -40 1 c-22 1 -45 -2 -50 -6z"/>
<path d="M298 258 c-29 -10 -38 -28 -15 -28 9 0 9 -2 -1 -9 -15 -9 -23 -54
-13 -69 3 -5 17 -12 31 -16 19 -6 22 -5 10 3 -11 8 -1 10 40 7 42 -3 46 -2 20
4 l-35 7 36 2 c19 0 40 -4 47 -11 9 -9 12 -7 12 9 0 19 -7 22 -52 26 l-53 3
53 2 c28 1 52 6 52 11 0 6 -24 12 -52 14 l-53 3 53 2 c30 1 52 7 52 13 0 8
-21 10 -65 7 -35 -2 -59 0 -52 4 6 4 36 8 65 8 28 0 52 5 52 10 0 13 -96 12
-132 -2z"/>
</g>
</svg>
